# xmcd
#
# Track frame offsets:
#	150
#	13309
#	30352
#	46295
#	64635
#	84100
#	99825
#	113587
#	128677
#	140440
#	157872
#	176572
#	195559
#
# Disc length: 2838 seconds
#
# Revision: 0
# Processed by: cddbd v1.4b42PL1 Copyright (c) Steve Scherf et al.
# Submitted via: EasyCDDAExtractor 4.5.0.2
#
DISCID=920b140d
DTITLE=Brooks and Dunn - Tight Rope
DYEAR=1999
DGENRE=Country
TTITLE0=Goin' Under Gettin' Over You
TTITLE1=Missing You
TTITLE2=Temptation #9
TTITLE3=Hurt Train
TTITLE4=Can't Stop My Heart
TTITLE5=Too Far This Time
TTITLE6=You'll always Be Love By Me
TTITLE7=I Love You More
TTITLE8=Beer Thirty
TTITLE9=Don't Look Back Now
TTITLE10=All Out Of Love
TTITLE11=The Trouble With Angels
TTITLE12=Texas And Norma Jean
EXTD=
EXTT0=
EXTT1=
EXTT2=
EXTT3=
EXTT4=
EXTT5=
EXTT6=
EXTT7=
EXTT8=
EXTT9=
EXTT10=
EXTT11=
EXTT12=
PLAYORDER=
